<svg width="115" height="115" viewBox="0 0 115 115" fill="none" xmlns="http://www.w3.org/2000/svg">
<path d="M47.8739 66.9978C47.8739 71.952 44.2801 73.5179 39.865 73.5179H28.2879V59.9386H40.096C44.8705 59.9643 47.8739 61.9408 47.8739 66.9978V66.9978ZM45.8973 45.8717C45.8973 41.3281 42.3806 40.25 38.4788 40.25H28.3136V51.75H39.2746C43.1507 51.75 45.8973 50.0558 45.8973 45.8717V45.8717ZM79.8583 51.827C75.1607 51.827 72.029 54.7534 71.721 59.4509H87.6875C87.2511 54.702 84.7868 51.827 79.8583 51.827ZM115 12.3214V102.679C115 109.481 109.481 115 102.679 115H12.3214C5.51897 115 0 109.481 0 102.679V12.3214C0 5.51897 5.51897 0 12.3214 0H102.679C109.481 0 115 5.51897 115 12.3214ZM69.7444 39.2746H89.7154V34.423H69.7444V39.2746ZM58.7065 67.5882C58.7065 61.4018 55.7801 56.0625 49.7221 54.3426C54.1373 52.2377 56.4475 49.7991 56.4475 44.8449C56.4475 35.0391 49.1317 32.6518 40.6864 32.6518H17.4554V81.9375H41.3538C50.3125 81.8862 58.7065 77.5993 58.7065 67.5882V67.5882ZM97.5446 63.7891C97.5446 53.2388 91.3583 44.4342 80.192 44.4342C69.308 44.4342 61.9409 52.5971 61.9409 63.327C61.9409 74.442 68.9487 82.0659 80.192 82.0659C88.7143 82.0659 94.2333 78.2411 96.9029 70.0525H88.2522C87.3025 73.1071 83.4777 74.6987 80.5 74.6987C74.75 74.6987 71.7467 71.3359 71.7467 65.6373H97.4676C97.4933 65.0469 97.5446 64.4051 97.5446 63.7891Z" fill="#F7E8B7"/>
</svg>
