<svg width="160" height="160" viewBox="0 0 160 160" fill="none" xmlns="http://www.w3.org/2000/svg">
<mask id="mask0_68_12" style="mask-type:alpha" maskUnits="userSpaceOnUse" x="3" y="3" width="152" height="152">
<path d="M140.508 5.25746H17.9417C11.1726 5.25746 5.68509 10.7449 5.68509 17.5141V140.08C5.68509 146.849 11.1726 152.337 17.9417 152.337H140.508C147.277 152.337 152.765 146.849 152.765 140.08V17.5141C152.765 10.7449 147.277 5.25746 140.508 5.25746Z" fill="white" stroke="white" stroke-width="4" stroke-linejoin="round"/>
</mask>
<g mask="url(#mask0_68_12)">
<path d="M0 0H79.2749H160V160H0V0Z" fill="#FF6363"/>
<path d="M47.5898 48C47.5898 43.9741 49.2322 40.1132 52.1559 37.2665C55.0795 34.4198 59.0448 32.8205 63.1795 32.8205H78.7692V63.1795H63.1795C59.0448 63.1795 55.0795 61.5802 52.1559 58.7335C49.2322 55.8868 47.5898 52.0258 47.5898 48ZM47.5898 78.359C47.5898 74.3331 49.2322 70.4722 52.1559 67.6255C55.0795 64.7787 59.0448 63.1795 63.1795 63.1795H78.7692V93.5385H63.1795C59.0448 93.5385 55.0795 91.9392 52.1559 89.0925C49.2322 86.2458 47.5898 82.3848 47.5898 78.359ZM47.5898 108.718C47.5898 104.692 49.2322 100.831 52.1559 97.9844C55.0795 95.1377 59.0448 93.5385 63.1795 93.5385H78.7692V108.718C78.7692 112.744 77.1268 116.605 74.2031 119.451C71.2795 122.298 67.3142 123.897 63.1795 123.897C59.0448 123.897 55.0795 122.298 52.1559 119.451C49.2322 116.605 47.5898 112.744 47.5898 108.718ZM78.7692 32.8205H94.359C98.4936 32.8205 102.459 34.4198 105.383 37.2665C108.306 40.1132 109.949 43.9741 109.949 48C109.949 52.0258 108.306 55.8868 105.383 58.7335C102.459 61.5802 98.4936 63.1795 94.359 63.1795H78.7692V32.8205Z" fill="white" stroke="#FF6363" stroke-width="4" stroke-linejoin="round"/>
<path d="M79.5898 78.359C79.5898 74.1155 81.189 70.0458 84.0357 67.0453C86.8824 64.0447 90.7434 62.359 94.7692 62.359C98.7951 62.359 102.656 64.0447 105.503 67.0453C108.349 70.0458 109.949 74.1155 109.949 78.359C109.949 82.6024 108.349 86.6721 105.503 89.6727C102.656 92.6733 98.7951 94.359 94.7692 94.359C90.7434 94.359 86.8824 92.6733 84.0357 89.6727C81.189 86.6721 79.5898 82.6024 79.5898 78.359Z" fill="white" stroke="#FF6363" stroke-width="4" stroke-linejoin="round"/>
</g>
</svg>
