<svg width="165" height="168" viewBox="0 0 165 168" fill="none" xmlns="http://www.w3.org/2000/svg">
<path d="M72.3937 74.5563C71.7062 72.3404 71.0875 70.1959 70.4 67.98C69.7125 65.764 69.0938 63.691 68.5438 61.618C67.9938 59.6165 67.5125 57.7579 67.0312 56.0424H66.8937C66.275 59.1161 65.5188 62.1899 64.5563 65.2636C63.525 68.6948 62.4938 72.2689 61.3938 75.843C60.4313 79.4886 59.4 82.8483 58.3687 85.8506H75.8312C75.4187 84.3423 74.8688 82.5624 74.25 80.6967C73.6313 78.7738 73.0125 76.7008 72.3937 74.5563V74.5563ZM135.781 0H29.2188C13.0625 0 0 13.5817 0 30.3801V136.889C0 153.688 13.0625 167.269 29.2188 167.269H135.781C151.937 167.269 165 153.688 165 136.889V30.3801C165 13.5817 151.937 0 135.781 0ZM101.062 118.161H86.6869C86.2125 118.232 85.7312 117.875 85.5937 117.374L79.9563 100.362H54.3812L49.1563 117.16C49.0188 117.803 48.4688 118.232 47.85 118.168H34.925C34.1687 118.168 33.9625 117.732 34.1687 116.881L56.3062 50.6097C56.5125 49.8949 56.7187 49.1085 56.9937 48.2508C57.2687 46.7496 57.4063 45.177 57.4063 43.6044C57.3375 43.247 57.6125 42.8896 57.9563 42.8181H75.7625C76.3125 42.8181 76.5875 43.0325 76.6562 43.3899L101.75 117.017C101.956 117.796 101.75 118.161 101.062 118.161V118.161ZM124.438 117.089C124.438 117.875 124.169 118.232 123.551 118.232H110.069C109.381 118.232 109.037 117.796 109.037 117.089V62.0469C109.037 61.3321 109.319 61.0461 109.938 61.0461H123.551C124.169 61.0461 124.438 61.4035 124.438 62.0469V117.089V117.089ZM123.001 52.5397C122.189 53.3971 121.21 54.0639 120.129 54.4954C119.049 54.9269 117.893 55.1132 116.737 55.0416C114.469 55.1131 112.269 54.1838 110.612 52.5397C109.037 50.749 108.198 48.3887 108.274 45.9633C108.206 43.5329 109.099 41.2455 110.742 39.6014C112.406 37.9573 114.606 37.0995 116.875 37.0995C119.563 37.0995 121.612 37.9573 123.131 39.6014C124.644 41.3169 125.469 43.6044 125.4 45.9633C125.469 48.3937 124.644 50.7526 123.001 52.5397V52.5397Z" fill="#F8B400"/>
</svg>
