<svg width="160" height="160" viewBox="0 0 160 160" fill="none" xmlns="http://www.w3.org/2000/svg">
<path d="M28.3333 2C12.6667 2 0 14.6667 0 30.3333V129.667C0 145.333 12.6667 158 28.3333 158H131.667C147.333 158 160 145.333 160 129.667V30.3333C160 14.6667 147.333 2 131.667 2H28.3333ZM103.733 36.2H117.267C117.6 36.1333 117.867 36.4 117.933 36.6667V100.267C117.933 101.467 118 102.8 118.067 104.267C118.2 105.667 118.267 107 118.333 108.133C118.333 108.6 118.133 109 117.667 109.2C114.2 110.667 110.533 111.733 106.8 112.4C103.467 113 100 113.333 96.5333 113.333C91.6 113.4 86.6667 112.4 82.2 110.333C78 108.4 74.5333 105.2 72.1333 101.267C69.6667 97.2 68.4667 92.1333 68.4667 86.0667C68.4 81.1333 69.6667 76.2667 72.1333 72C74.6667 67.6667 78.3333 64.0667 82.7333 61.6667C87.4 59.0667 93 57.8 99.6 57.8C99.9333 57.8 100.4 57.8 101 57.8667C101.6 57.9333 102.267 57.9333 103.067 58V36.9333C103.067 36.4667 103.267 36.2 103.733 36.2ZM44.2 41.9333H57.2C57.6 41.8667 58 42.1333 58.0667 42.6C58.1333 42.6667 58.1333 42.7333 58.1333 42.8V111.2C58.1333 111.933 57.8 112.267 57.2 112.267H44.1333C43.5333 112.267 43.2667 111.933 43.2667 111.2V42.8C43.2667 42.2 43.6 41.9333 44.2 41.9333ZM99.0667 70.2C96.4667 70.2 93.8667 70.7333 91.5333 71.9333C89.2667 73.0667 87.3333 74.7333 85.8667 76.8667C84.4 79 83.6667 81.8667 83.6667 85.3333C83.6 87.6667 84 90 84.8 92.2C85.4667 94 86.4667 95.6 87.8 96.9333C89.0667 98.1333 90.6 99.0667 92.3333 99.6C94.1333 100.2 96 100.467 97.8667 100.467C98.8667 100.467 99.8 100.4 100.667 100.333C101.533 100.4 102.333 100.267 103.067 100V70.6667C101.756 70.3537 100.414 70.197 99.0667 70.2Z" fill="#FF6363"/>
</svg>
