<svg width="115" height="115" viewBox="0 0 115 115" fill="none" xmlns="http://www.w3.org/2000/svg">
<path d="M57.5 43.8078C54.7922 43.8088 52.1454 44.6127 49.8944 46.1179C47.6434 47.623 45.8893 49.7618 44.8537 52.2638C43.8182 54.7658 43.5478 57.5187 44.0767 60.1744C44.6056 62.83 45.91 65.2693 47.8251 67.1837C49.7402 69.098 52.1799 70.4016 54.8358 70.9295C57.4917 71.4574 60.2445 71.1859 62.7461 70.1494C65.2477 69.113 67.3858 67.358 68.8901 65.1064C70.3944 62.8549 71.1973 60.2078 71.1973 57.5C71.1946 53.8686 69.7505 50.3867 67.1822 47.8194C64.6138 45.252 61.1315 43.8092 57.5 43.8078V43.8078ZM89.5126 33.2833C88.8156 31.5168 87.763 29.9124 86.4202 28.5696C85.0774 27.2267 83.4729 26.1742 81.7065 25.4771C76.3158 23.3491 63.481 23.8266 57.5 23.8266C51.519 23.8266 38.697 23.3311 33.291 25.4771C31.5245 26.1742 29.9201 27.2267 28.5773 28.5696C27.2344 29.9124 26.1819 31.5168 25.4848 33.2833C23.3594 38.6739 23.8343 51.5215 23.8343 57.4974C23.8343 63.4733 23.3594 76.3056 25.4951 81.7142C26.1921 83.4806 27.2447 85.0851 28.5875 86.4279C29.9303 87.7707 31.5348 88.8233 33.3012 89.5203C38.6919 91.6483 51.5267 91.1709 57.5103 91.1709C63.4939 91.1709 76.3107 91.6663 81.7167 89.5203C83.4832 88.8233 85.0876 87.7707 86.4304 86.4279C87.7733 85.0851 88.8258 83.4806 89.5229 81.7142C91.6663 76.3235 91.1734 63.4759 91.1734 57.5C91.1734 51.5241 91.6663 38.6944 89.5229 33.2858L89.5126 33.2833ZM57.5 78.5491C53.3369 78.5491 49.2673 77.3146 45.8057 75.0017C42.3442 72.6888 39.6463 69.4014 38.0532 65.5551C36.46 61.7089 36.0432 57.4767 36.8553 53.3935C37.6675 49.3104 39.6723 45.5598 42.616 42.616C45.5598 39.6723 49.3104 37.6675 53.3935 36.8553C57.4767 36.0432 61.7089 36.46 65.5551 38.0532C69.4014 39.6463 72.6888 42.3442 75.0017 45.8057C77.3146 49.2673 78.5491 53.3369 78.5491 57.5C78.5525 60.2652 78.0103 63.0038 76.9537 65.5591C75.8971 68.1145 74.3468 70.4362 72.3915 72.3915C70.4362 74.3468 68.1145 75.8971 65.5591 76.9537C63.0038 78.0103 60.2652 78.5525 57.5 78.5491V78.5491ZM79.4167 40.481C78.4449 40.4815 77.4947 40.1938 76.6864 39.6543C75.8781 39.1147 75.248 38.3475 74.8757 37.4498C74.5035 36.5521 74.4058 35.5642 74.5951 34.6109C74.7844 33.6577 75.2521 32.782 75.9391 32.0946C76.6261 31.4073 77.5016 30.9391 78.4547 30.7493C79.4079 30.5595 80.3959 30.6566 81.2938 31.0284C82.1917 31.4002 82.9592 32.03 83.4991 32.838C84.0391 33.646 84.3273 34.596 84.3273 35.5679C84.3301 36.2132 84.2053 36.8528 83.9603 37.4498C83.7153 38.0469 83.3548 38.5897 82.8995 39.0471C82.4442 39.5045 81.9031 39.8676 81.3072 40.1154C80.7113 40.3632 80.0724 40.491 79.427 40.4913L79.4167 40.481ZM102.679 0H12.3214C9.05358 0 5.91958 1.29815 3.60886 3.60886C1.29815 5.91958 0 9.05358 0 12.3214L0 102.679C0 105.946 1.29815 109.08 3.60886 111.391C5.91958 113.702 9.05358 115 12.3214 115H102.679C105.946 115 109.08 113.702 111.391 111.391C113.702 109.08 115 105.946 115 102.679V12.3214C115 9.05358 113.702 5.91958 111.391 3.60886C109.08 1.29815 105.946 0 102.679 0V0ZM98.2839 74.442C97.9528 81.0211 96.4511 86.8507 91.6483 91.6406C86.8455 96.4306 81.0211 97.9631 74.4497 98.2762C67.6703 98.6587 47.3451 98.6587 40.5657 98.2762C33.9866 97.9451 28.1776 96.4409 23.3671 91.6406C18.5566 86.8404 17.0446 81.0083 16.7315 74.442C16.349 67.66 16.349 47.3323 16.7315 40.558C17.0626 33.9789 18.5463 28.1493 23.3671 23.3594C28.1878 18.5694 34.0123 17.0549 40.5657 16.7417C47.3451 16.3593 67.6703 16.3593 74.4497 16.7417C81.0288 17.0729 86.8558 18.5771 91.6483 23.3773C96.4408 28.1776 97.9708 34.0097 98.2839 40.5888C98.6664 47.3451 98.6664 67.6549 98.2839 74.442Z" fill="#FF6363"/>
</svg>
