<svg width="353" height="697" viewBox="0 0 353 697" fill="none" xmlns="http://www.w3.org/2000/svg">
<g clip-path="url(#clip0_157_2)">
<path d="M329.843 435.006L151.998 332.327L3.21785 590.021L181.063 692.7L329.843 435.006Z" fill="white" stroke="#1D2342" stroke-width="2.4996" stroke-miterlimit="10"/>
<path d="M11.0246 587.929L156.947 335.185L151.998 332.327L3.1226 590.186L180.968 692.865L183.92 687.751L11.0246 587.929Z" fill="#AADDF9"/>
<path d="M203.257 394.037L155.249 366.32L149.343 376.548L197.352 404.266L203.257 394.037Z" fill="#C6C6C6"/>
<path d="M266.441 457.573L143.533 386.612L141.057 390.901L263.964 461.862L266.441 457.573Z" fill="#C6C6C6"/>
<path d="M261.393 466.316L138.485 395.356L136.008 399.645L258.916 470.606L261.393 466.316Z" fill="#C6C6C6"/>
<path d="M256.344 475.06L133.437 404.099L130.96 408.389L253.868 479.35L256.344 475.06Z" fill="#C6C6C6"/>
<path d="M108.77 557.694L60.7612 529.977L54.8558 540.205L102.864 567.923L108.77 557.694Z" fill="#C6C6C6"/>
<path d="M131.864 598.084L49.0455 550.269L46.5691 554.558L129.387 602.374L131.864 598.084Z" fill="#C6C6C6"/>
<path d="M126.816 606.828L43.9973 559.013L41.5209 563.302L124.339 611.117L126.816 606.828Z" fill="#C6C6C6"/>
<path d="M97.186 601.379L38.9491 567.756L36.4726 572.046L94.7095 605.669L97.186 601.379Z" fill="#C6C6C6"/>
<path d="M221.169 584.754L77.1442 501.601L74.6677 505.89L218.693 589.043L221.169 584.754Z" fill="#C6C6C6"/>
<path d="M216.121 593.497L72.0959 510.344L69.6195 514.634L213.644 597.787L216.121 593.497Z" fill="#C6C6C6"/>
<path d="M165.469 575.692L67.1429 518.923L64.6665 523.213L162.993 579.981L165.469 575.692Z" fill="#C6C6C6"/>
<path d="M129.772 452.356L111.625 441.879L83.8117 490.052L101.959 500.53L129.772 452.356Z" fill="#D06037"/>
<path d="M228.098 509.125L209.951 498.648L182.138 546.821L200.285 557.298L228.098 509.125Z" fill="#D06037"/>
<path d="M238.773 547.404L220.626 536.927L206.719 561.013L224.867 571.491L238.773 547.404Z" fill="#D06037"/>
<path d="M161.497 454.175L143.35 443.698L108.393 504.245L126.541 514.722L161.497 454.175Z" fill="#D06037"/>
<path d="M210.66 482.56L192.513 472.082L157.556 532.629L175.704 543.106L210.66 482.56Z" fill="#D06037"/>
<path d="M193.223 455.994L175.075 445.517L132.975 518.437L151.122 528.914L193.223 455.994Z" fill="#D06037"/>
<path d="M194.423 632.223C186.993 645.091 170.599 649.484 157.731 642.054C144.863 634.625 140.47 618.231 147.899 605.362C155.329 592.494 171.723 588.101 184.591 595.531C197.459 602.96 201.852 619.354 194.423 632.223Z" fill="#D06037"/>
<path d="M194.423 632.223L171.161 618.792L184.591 595.531C197.459 602.96 201.852 619.354 194.423 632.223Z" fill="#FCC039"/>
</g>
<g clip-path="url(#clip1_157_2)">
<path d="M225.031 326.982L51.3392 319.733L62.0662 534.801L235.758 542.051L225.031 326.982Z" fill="white" stroke="#1D2342" stroke-width="2.4996" stroke-miterlimit="10"/>
<path d="M66.6939 530.872L56.173 319.935L51.3392 319.733L62.0731 534.939L235.765 542.188L235.552 537.92L66.6939 530.872Z" fill="#AADDF9"/>
<path d="M115.986 342.492L69.0988 340.535L69.5245 349.071L116.412 351.028L115.986 342.492Z" fill="#C6C6C6"/>
<path d="M189.981 362.48L69.9435 357.47L70.122 361.05L190.159 366.06L189.981 362.48Z" fill="#C6C6C6"/>
<path d="M190.345 369.778L70.3075 364.768L70.486 368.348L190.523 373.358L190.345 369.778Z" fill="#C6C6C6"/>
<path d="M190.709 377.075L70.6714 372.065L70.8499 375.645L190.887 380.655L190.709 377.075Z" fill="#C6C6C6"/>
<path d="M122.798 479.078L75.9113 477.121L76.337 485.658L123.224 487.615L122.798 479.078Z" fill="#C6C6C6"/>
<path d="M157.64 497.432L76.756 494.057L76.9345 497.636L157.819 501.012L157.64 497.432Z" fill="#C6C6C6"/>
<path d="M158.004 504.73L77.12 501.354L77.2985 504.934L158.183 508.31L158.004 504.73Z" fill="#C6C6C6"/>
<path d="M134.361 511.025L77.4839 508.651L77.6624 512.231L134.539 514.605L134.361 511.025Z" fill="#C6C6C6"/>
<path d="M215.391 459.309L74.7301 453.439L74.9087 457.019L215.57 462.889L215.391 459.309Z" fill="#C6C6C6"/>
<path d="M215.755 466.607L75.094 460.736L75.2725 464.316L215.934 470.187L215.755 466.607Z" fill="#C6C6C6"/>
<path d="M171.481 471.904L75.4512 467.896L75.6297 471.476L171.66 475.484L171.481 471.904Z" fill="#C6C6C6"/>
<path d="M89.9677 404.335L72.244 403.596L74.2493 443.801L91.973 444.54L89.9677 404.335Z" fill="#D06037"/>
<path d="M185.998 408.343L168.274 407.604L170.279 447.809L188.003 448.548L185.998 408.343Z" fill="#D06037"/>
<path d="M211.008 429.448L193.284 428.708L194.287 448.81L212.01 449.55L211.008 429.448Z" fill="#D06037"/>
<path d="M113.46 395.011L95.7365 394.271L98.2568 444.803L115.98 445.542L113.46 395.011Z" fill="#D06037"/>
<path d="M161.475 397.015L143.751 396.275L146.272 446.807L163.995 447.546L161.475 397.015Z" fill="#D06037"/>
<path d="M136.953 385.686L119.229 384.947L122.264 445.805L139.988 446.544L136.953 385.686Z" fill="#D06037"/>
<path d="M217.839 498.708C218.374 509.448 208.656 517.699 196.089 517.174C183.521 516.65 172.937 507.552 172.402 496.812C171.866 486.072 181.584 477.822 194.152 478.346C206.72 478.871 217.303 487.969 217.839 498.708Z" fill="#D06037"/>
<path d="M217.839 498.708L195.12 497.76L194.152 478.346C206.72 478.871 217.303 487.969 217.839 498.708Z" fill="#FCC039"/>
</g>
<g clip-path="url(#clip2_157_2)">
<path d="M183.752 407.74L83.2639 454.189L175.799 585.149L276.287 538.7L183.752 407.74Z" fill="white" stroke="#1D2342" stroke-width="2.4996" stroke-miterlimit="10"/>
<path d="M176.818 581.341L86.0604 452.896L83.2639 454.189L175.858 585.233L276.346 538.784L274.509 536.185L176.818 581.341Z" fill="#AADDF9"/>
<path d="M128.734 449.41L101.608 461.948L105.281 467.147L132.407 454.608L128.734 449.41Z" fill="#C6C6C6"/>
<path d="M178.341 440.16L108.894 472.261L110.435 474.441L179.881 442.34L178.341 440.16Z" fill="#C6C6C6"/>
<path d="M181.481 444.604L112.034 476.704L113.574 478.884L183.021 446.784L181.481 444.604Z" fill="#C6C6C6"/>
<path d="M184.62 449.048L115.174 481.148L116.714 483.328L186.161 451.228L184.62 449.048Z" fill="#C6C6C6"/>
<path d="M187.501 532.581L160.375 545.119L164.048 550.317L191.174 537.779L187.501 532.581Z" fill="#C6C6C6"/>
<path d="M214.457 533.801L167.662 555.432L169.202 557.611L215.997 535.981L214.457 533.801Z" fill="#C6C6C6"/>
<path d="M217.596 538.245L170.802 559.875L172.342 562.055L219.137 540.425L217.596 538.245Z" fill="#C6C6C6"/>
<path d="M206.847 549.109L173.941 564.319L175.482 566.499L208.387 551.289L206.847 549.109Z" fill="#C6C6C6"/>
<path d="M231.564 493.083L150.186 530.698L151.726 532.878L233.104 495.263L231.564 493.083Z" fill="#C6C6C6"/>
<path d="M234.704 497.526L153.325 535.142L154.866 537.322L236.244 499.706L234.704 497.526Z" fill="#C6C6C6"/>
<path d="M211.963 513.821L156.406 539.502L157.946 541.682L213.503 516.001L211.963 513.821Z" fill="#C6C6C6"/>
<path d="M138.994 495.608L128.74 500.348L146.039 524.829L156.293 520.09L138.994 495.608Z" fill="#D06037"/>
<path d="M194.551 469.928L184.297 474.667L201.596 499.149L211.85 494.409L194.551 469.928Z" fill="#D06037"/>
<path d="M217.09 475.749L206.836 480.488L215.485 492.729L225.739 487.989L217.09 475.749Z" fill="#D06037"/>
<path d="M148.44 482.9L138.186 487.64L159.928 518.409L170.182 513.67L148.44 482.9Z" fill="#D06037"/>
<path d="M176.219 470.06L165.965 474.799L187.707 505.569L197.961 500.83L176.219 470.06Z" fill="#D06037"/>
<path d="M157.887 470.192L147.633 474.931L173.817 511.989L184.071 507.25L157.887 470.192Z" fill="#D06037"/>
<path d="M248.787 516.932C253.407 523.472 251.267 531.468 243.996 534.829C236.725 538.19 227.12 535.622 222.499 529.083C217.879 522.543 220.019 514.547 227.29 511.186C234.561 507.825 244.166 510.392 248.787 516.932Z" fill="#D06037"/>
<path d="M248.787 516.932L235.643 523.007L227.29 511.186C234.561 507.825 244.166 510.392 248.787 516.932Z" fill="#FCC039"/>
</g>
<path d="M130.109 45.9009L112.693 49.0447L135.215 31.492L143.726 33.7188L130.109 45.9009Z" fill="#F6A654" stroke="#1D2342" stroke-width="2.4996" stroke-miterlimit="10"/>
<path d="M121.336 31.492L114.265 47.7348L136.394 29.9201L136.263 21.1438L121.336 31.492Z" fill="#F6A654" stroke="#1D2342" stroke-width="2.4996" stroke-miterlimit="10"/>
<path d="M119.764 86.246C119.764 115.588 95.9331 139.297 66.7333 139.297C37.4026 139.297 13.7023 115.457 13.7023 86.246C13.7023 56.9041 37.5335 33.1949 66.7333 33.1949C96.0641 33.1949 119.764 56.9041 119.764 86.246Z" fill="#EA513F" stroke="#1D2342" stroke-width="2.4996" stroke-miterlimit="10"/>
<path d="M103.79 86.246C103.79 106.681 87.16 123.316 66.7333 123.316C46.3065 123.316 29.677 106.681 29.677 86.246C29.677 65.8115 46.3065 49.1757 66.7333 49.1757C87.16 49.1757 103.79 65.8115 103.79 86.246Z" fill="white"/>
<path d="M83.6246 86.246C83.6246 95.5463 76.0301 103.144 66.7333 103.144C57.4365 103.144 49.8419 95.5463 49.8419 86.246C49.8419 76.9457 57.4365 69.3483 66.7333 69.3483C76.0301 69.3483 83.6246 76.9457 83.6246 86.246Z" fill="#EA513F"/>
<path d="M66.7333 86.246L137.441 29.7891" stroke="#1D2342" stroke-width="2.1276" stroke-miterlimit="10" stroke-linecap="round" stroke-linejoin="round"/>
<g clip-path="url(#clip3_157_2)">
<path d="M411.615 2.19004L225.958 49.5102L264.097 154.745L449.754 107.425L411.615 2.19004Z" fill="#F1844D" stroke="#1D2342" stroke-width="2.4996" stroke-miterlimit="10" stroke-linecap="round" stroke-linejoin="round"/>
<path d="M449.985 107.402L264.22 154.762L338.071 78.4312L449.985 107.402Z" fill="#F6A654" stroke="#1D2342" stroke-width="2.4996" stroke-miterlimit="10" stroke-linecap="round" stroke-linejoin="round"/>
<path d="M411.715 2.1001L225.95 49.4601L344.277 95.9526L411.715 2.1001Z" fill="#F6A654" stroke="#1D2342" stroke-width="2.4996" stroke-miterlimit="10" stroke-linecap="round" stroke-linejoin="round"/>
</g>
<g clip-path="url(#clip4_157_2)">
<path d="M192.317 105.749L104.104 173.33L158.827 223.044L247.04 155.464L192.317 105.749Z" fill="#F1844D" stroke="#1D2342" stroke-width="2.4996" stroke-miterlimit="10" stroke-linecap="round" stroke-linejoin="round"/>
<path d="M247.161 155.4L158.901 223.027L175.68 164.329L247.161 155.4Z" fill="#F6A654" stroke="#1D2342" stroke-width="2.4996" stroke-miterlimit="10" stroke-linecap="round" stroke-linejoin="round"/>
<path d="M192.344 105.677L104.084 173.304L184.711 172.638L192.344 105.677Z" fill="#F6A654" stroke="#1D2342" stroke-width="2.4996" stroke-miterlimit="10" stroke-linecap="round" stroke-linejoin="round"/>
</g>
<g clip-path="url(#clip5_157_2)">
<path d="M101.131 221.639L73.1975 270.718L112.929 286.453L140.863 237.375L101.131 221.639Z" fill="#F1844D" stroke="#1D2342" stroke-width="2.4996" stroke-miterlimit="10" stroke-linecap="round" stroke-linejoin="round"/>
<path d="M140.908 237.322L112.962 286.432L107.068 253.994L140.908 237.322Z" fill="#F6A654" stroke="#1D2342" stroke-width="2.4996" stroke-miterlimit="10" stroke-linecap="round" stroke-linejoin="round"/>
<path d="M101.127 221.598L73.1809 270.708L113.651 256.643L101.127 221.598Z" fill="#F6A654" stroke="#1D2342" stroke-width="2.4996" stroke-miterlimit="10" stroke-linecap="round" stroke-linejoin="round"/>
</g>
<defs>
<clipPath id="clip0_157_2">
<rect width="210.12" height="302.322" fill="white" transform="translate(151.161 329.204) rotate(30)"/>
</clipPath>
<clipPath id="clip1_157_2">
<rect width="177.874" height="218.782" fill="white" transform="matrix(0.99913 0.0417001 0.049815 0.998758 49.3234 318)"/>
</clipPath>
<clipPath id="clip2_157_2">
<rect width="113.271" height="162.92" fill="white" transform="matrix(0.90772 -0.419577 0.577068 0.816696 81.4344 453.7)"/>
</clipPath>
<clipPath id="clip3_157_2">
<rect width="229" height="156.826" fill="white" transform="translate(223.468 0.0183411)"/>
</clipPath>
<clipPath id="clip4_157_2">
<rect width="137.245" height="100.104" fill="white" transform="matrix(0.928198 -0.372086 0.498809 0.866712 86.9611 146.505)"/>
</clipPath>
<clipPath id="clip5_157_2">
<rect width="70.1697" height="58.2333" fill="white" transform="matrix(0.736992 -0.675901 0.796358 0.604826 58 260.118)"/>
</clipPath>
</defs>
</svg>
