<svg width="1334" height="1079" viewBox="0 0 1334 1079" fill="none" xmlns="http://www.w3.org/2000/svg">
<path d="M830.77 230.05L411.622 366.007L497.727 668.361L916.874 532.404L830.77 230.05Z" fill="#F1844D" stroke="#1D2342" stroke-width="2.4996" stroke-miterlimit="10" stroke-linecap="round" stroke-linejoin="round"/>
<path d="M917.396 532.339L498.005 668.411L664.734 449.101L917.396 532.339Z" fill="#F6A654" stroke="#1D2342" stroke-width="2.4996" stroke-miterlimit="10" stroke-linecap="round" stroke-linejoin="round"/>
<path d="M830.995 229.791L411.604 365.863L678.744 499.443L830.995 229.791Z" fill="#F6A654" stroke="#1D2342" stroke-width="2.4996" stroke-miterlimit="10" stroke-linecap="round" stroke-linejoin="round"/>
<g clip-path="url(#clip0_29_48)">
<path d="M334.367 529.544L134.218 725.392L258.381 869.464L458.53 673.616L334.367 529.544Z" fill="#F1844D" stroke="#1D2342" stroke-width="2.4996" stroke-miterlimit="10" stroke-linecap="round" stroke-linejoin="round"/>
<path d="M458.806 673.431L258.549 869.412L296.619 699.307L458.806 673.431Z" fill="#F6A654" stroke="#1D2342" stroke-width="2.4996" stroke-miterlimit="10" stroke-linecap="round" stroke-linejoin="round"/>
<path d="M334.429 529.335L134.172 725.316L317.11 723.388L334.429 529.335Z" fill="#F6A654" stroke="#1D2342" stroke-width="2.4996" stroke-miterlimit="10" stroke-linecap="round" stroke-linejoin="round"/>
</g>
<g clip-path="url(#clip1_29_48)">
<path d="M127.472 865.392L64.0922 1007.62L154.241 1053.22L217.62 910.993L127.472 865.392Z" fill="#F1844D" stroke="#1D2342" stroke-width="2.4996" stroke-miterlimit="10" stroke-linecap="round" stroke-linejoin="round"/>
<path d="M217.724 910.84L154.316 1053.16L140.942 959.154L217.724 910.84Z" fill="#F6A654" stroke="#1D2342" stroke-width="2.4996" stroke-miterlimit="10" stroke-linecap="round" stroke-linejoin="round"/>
<path d="M127.463 865.273L64.0545 1007.59L155.878 966.833L127.463 865.273Z" fill="#F6A654" stroke="#1D2342" stroke-width="2.4996" stroke-miterlimit="10" stroke-linecap="round" stroke-linejoin="round"/>
</g>
<g clip-path="url(#clip2_29_48)">
<path d="M1327.31 114.934L1134.12 3.39224L972.496 283.328L1165.69 394.87L1327.31 114.934Z" fill="white" stroke="#1D2342" stroke-width="2.4996" stroke-miterlimit="10"/>
<path d="M980.976 281.056L1139.49 6.49636L1134.12 3.39224L972.392 283.508L1165.59 395.049L1168.8 389.493L980.976 281.056Z" fill="#AADDF9"/>
<path d="M1189.8 70.4287L1137.65 40.3188L1131.23 51.4302L1183.39 81.5402L1189.8 70.4287Z" fill="#C6C6C6"/>
<path d="M1258.44 139.448L1124.92 62.3624L1122.23 67.0221L1255.75 144.108L1258.44 139.448Z" fill="#C6C6C6"/>
<path d="M1252.95 148.947L1119.44 71.8609L1116.75 76.5205L1250.26 153.606L1252.95 148.947Z" fill="#C6C6C6"/>
<path d="M1247.47 158.445L1113.95 81.3593L1111.26 86.019L1244.78 163.105L1247.47 158.445Z" fill="#C6C6C6"/>
<path d="M1087.16 248.211L1035.01 218.102L1028.59 229.213L1080.74 259.323L1087.16 248.211Z" fill="#C6C6C6"/>
<path d="M1112.25 292.087L1022.28 240.145L1019.59 244.805L1109.56 296.747L1112.25 292.087Z" fill="#C6C6C6"/>
<path d="M1106.76 301.586L1016.79 249.644L1014.1 254.303L1104.07 306.245L1106.76 301.586Z" fill="#C6C6C6"/>
<path d="M1074.57 295.667L1011.31 259.142L1008.62 263.802L1071.88 300.327L1074.57 295.667Z" fill="#C6C6C6"/>
<path d="M1209.26 277.606L1052.8 187.276L1050.11 191.936L1206.57 282.266L1209.26 277.606Z" fill="#C6C6C6"/>
<path d="M1203.77 287.105L1047.32 196.775L1044.63 201.434L1201.08 291.764L1203.77 287.105Z" fill="#C6C6C6"/>
<path d="M1148.75 267.763L1041.94 206.094L1039.25 210.754L1146.06 272.422L1148.75 267.763Z" fill="#C6C6C6"/>
<path d="M1109.97 133.782L1090.26 122.4L1060.05 174.731L1079.76 186.113L1109.97 133.782Z" fill="#D06037"/>
<path d="M1216.79 195.45L1197.07 184.068L1166.86 236.4L1186.57 247.781L1216.79 195.45Z" fill="#D06037"/>
<path d="M1228.38 237.033L1208.67 225.651L1193.56 251.817L1213.28 263.199L1228.38 237.033Z" fill="#D06037"/>
<path d="M1144.44 135.758L1124.72 124.376L1086.75 190.148L1106.46 201.53L1144.44 135.758Z" fill="#D06037"/>
<path d="M1197.84 166.592L1178.13 155.21L1140.16 220.983L1159.87 232.364L1197.84 166.592Z" fill="#D06037"/>
<path d="M1178.9 137.733L1159.19 126.352L1113.45 205.565L1133.17 216.947L1178.9 137.733Z" fill="#D06037"/>
<path d="M1180.2 329.172C1172.13 343.151 1154.32 347.923 1140.34 339.853C1126.37 331.782 1121.59 313.973 1129.66 299.994C1137.74 286.015 1155.54 281.243 1169.52 289.314C1183.5 297.384 1188.27 315.194 1180.2 329.172Z" fill="#D06037"/>
<path d="M1180.2 329.172L1154.93 314.583L1169.52 289.314C1183.5 297.384 1188.27 315.194 1180.2 329.172Z" fill="#FCC039"/>
</g>
<path d="M1190.7 103.626H1000.12V398.445H1190.7V103.626Z" fill="white" stroke="#1D2342" stroke-width="2.4996" stroke-miterlimit="10"/>
<path d="M1005.43 392.783V103.626H1000.12V398.634H1190.7V392.783H1005.43Z" fill="#AADDF9"/>
<path d="M1069.95 131.183H1018.51V142.885H1069.95V131.183Z" fill="#C6C6C6"/>
<path d="M1150.22 154.398H1018.51V159.306H1150.22V154.398Z" fill="#C6C6C6"/>
<path d="M1150.22 164.402H1018.51V169.309H1150.22V164.402Z" fill="#C6C6C6"/>
<path d="M1150.22 174.405H1018.51V179.312H1150.22V174.405Z" fill="#C6C6C6"/>
<path d="M1069.95 318.417H1018.51V330.12H1069.95V318.417Z" fill="#C6C6C6"/>
<path d="M1107.26 341.633H1018.51V346.54H1107.26V341.633Z" fill="#C6C6C6"/>
<path d="M1107.26 351.636H1018.51V356.544H1107.26V351.636Z" fill="#C6C6C6"/>
<path d="M1080.91 361.64H1018.51V366.547H1080.91V361.64Z" fill="#C6C6C6"/>
<path d="M1172.85 285.953H1018.51V290.861H1172.85V285.953Z" fill="#C6C6C6"/>
<path d="M1172.85 295.957H1018.51V300.864H1172.85V295.957Z" fill="#C6C6C6"/>
<path d="M1123.87 305.771H1018.51V310.679H1123.87V305.771Z" fill="#C6C6C6"/>
<path d="M1037.95 217.628H1018.51V272.741H1037.95V217.628Z" fill="#D06037"/>
<path d="M1143.32 217.628H1123.87V272.741H1143.32V217.628Z" fill="#D06037"/>
<path d="M1169.66 245.184H1150.22V272.741H1169.66V245.184Z" fill="#D06037"/>
<path d="M1064.3 203.472H1044.85V272.741H1064.3V203.472Z" fill="#D06037"/>
<path d="M1116.98 203.472H1097.53V272.741H1116.98V203.472Z" fill="#D06037"/>
<path d="M1090.64 189.316H1071.19V272.741H1090.64V189.316Z" fill="#D06037"/>
<path d="M1173.38 339.934C1173.38 354.656 1162.24 366.547 1148.45 366.547C1134.66 366.547 1123.52 354.656 1123.52 339.934C1123.52 325.212 1134.66 313.321 1148.45 313.321C1162.24 313.321 1173.38 325.212 1173.38 339.934Z" fill="#D06037"/>
<path d="M1173.38 339.934H1148.45V313.321C1162.24 313.321 1173.38 325.212 1173.38 339.934Z" fill="#FCC039"/>
<g clip-path="url(#clip3_29_48)">
<path d="M1140.89 216.928L1027.85 286.494L1122.41 461.086L1235.45 391.519L1140.89 216.928Z" fill="white" stroke="#1D2342" stroke-width="2.4996" stroke-miterlimit="10"/>
<path d="M1123.74 455.797L1031 284.558L1027.85 286.494L1122.47 461.198L1235.51 391.631L1233.63 388.166L1123.74 455.797Z" fill="#AADDF9"/>
<path d="M1078.11 277.323L1047.59 296.102L1051.35 303.032L1081.86 284.253L1078.11 277.323Z" fill="#C6C6C6"/>
<path d="M1133.16 261.773L1055.04 309.85L1056.61 312.756L1134.73 264.679L1133.16 261.773Z" fill="#C6C6C6"/>
<path d="M1136.37 267.697L1058.25 315.774L1059.82 318.68L1137.94 270.603L1136.37 267.697Z" fill="#C6C6C6"/>
<path d="M1139.58 273.621L1061.46 321.698L1063.03 324.604L1141.15 276.527L1139.58 273.621Z" fill="#C6C6C6"/>
<path d="M1138.16 388.203L1107.65 406.982L1111.4 413.912L1141.92 395.133L1138.16 388.203Z" fill="#C6C6C6"/>
<path d="M1167.73 388.335L1115.09 420.73L1116.67 423.637L1169.31 391.241L1167.73 388.335Z" fill="#C6C6C6"/>
<path d="M1170.94 394.259L1118.3 426.654L1119.88 429.561L1172.52 397.165L1170.94 394.259Z" fill="#C6C6C6"/>
<path d="M1158.53 409.798L1121.51 432.578L1123.09 435.485L1160.1 412.704L1158.53 409.798Z" fill="#C6C6C6"/>
<path d="M1188.78 331.42L1097.24 387.757L1098.81 390.663L1190.35 334.326L1188.78 331.42Z" fill="#C6C6C6"/>
<path d="M1191.98 337.344L1100.44 393.681L1102.02 396.587L1193.56 340.25L1191.98 337.344Z" fill="#C6C6C6"/>
<path d="M1166.09 361.032L1103.59 399.493L1105.17 402.399L1167.66 363.938L1166.09 361.032Z" fill="#C6C6C6"/>
<path d="M1086.85 340.196L1075.32 347.295L1093 379.933L1104.53 372.834L1086.85 340.196Z" fill="#D06037"/>
<path d="M1149.35 301.734L1137.82 308.833L1155.49 341.471L1167.03 334.372L1149.35 301.734Z" fill="#D06037"/>
<path d="M1173.81 308.438L1162.28 315.536L1171.12 331.856L1182.65 324.757L1173.81 308.438Z" fill="#D06037"/>
<path d="M1097.94 322.197L1086.4 329.296L1108.62 370.317L1120.16 363.219L1097.94 322.197Z" fill="#D06037"/>
<path d="M1129.19 302.967L1117.65 310.065L1139.87 351.086L1151.4 343.988L1129.19 302.967Z" fill="#D06037"/>
<path d="M1109.02 304.199L1097.49 311.297L1124.25 360.702L1135.78 353.603L1109.02 304.199Z" fill="#D06037"/>
<path d="M1206.4 363.193C1211.13 371.912 1208.33 383.019 1200.16 388.053C1191.98 393.086 1181.56 390.11 1176.83 381.392C1172.11 372.673 1174.9 361.566 1183.08 356.532C1191.26 351.499 1201.68 354.475 1206.4 363.193Z" fill="#D06037"/>
<path d="M1206.4 363.193L1191.62 372.293L1183.08 356.532C1191.26 351.499 1201.68 354.475 1206.4 363.193Z" fill="#FCC039"/>
</g>
<path d="M1330.7 766.134C1330.7 774.105 1324.38 780.427 1316.4 780.427H765.874C757.9 780.427 751.575 774.105 751.575 766.134V414.866C751.575 406.895 757.9 400.573 765.874 400.573H1316.4C1324.38 400.573 1330.7 406.895 1330.7 414.866V766.134Z" fill="white" stroke="#1D2342" stroke-width="2.4996" stroke-miterlimit="10"/>
<path d="M1324.38 760.362C1324.38 768.058 1318.05 774.105 1310.35 774.105H771.924C764.224 774.105 757.9 767.783 757.9 760.362V420.638C757.9 412.942 764.224 406.895 771.924 406.895H1310.35C1318.05 406.895 1324.38 413.217 1324.38 420.638V760.362Z" fill="#DADADA"/>
<path d="M1289.45 437.129H788.148V737.824H1289.45V437.129Z" fill="#F39200"/>
<path d="M933.342 759.813C958.641 740.847 982.84 720.508 1005.66 698.519C1052.96 653.442 1095.04 603.143 1131.88 548.996C1162.68 503.92 1189.91 456.369 1213.28 406.62H771.924C764.224 406.62 757.9 412.942 757.9 420.363V760.087C757.9 767.783 764.224 773.83 771.924 773.83H913.268C919.868 769.433 926.742 764.76 933.342 759.813Z" fill="#DEDEDE"/>
<path d="M1054.06 422.562C1054.06 426.96 1050.49 430.258 1046.36 430.258C1041.96 430.258 1038.66 426.685 1038.66 422.562C1038.66 418.164 1042.24 414.866 1046.36 414.866C1050.76 414.866 1054.06 418.164 1054.06 422.562Z" fill="#9D9D9C"/>
<path d="M1113.46 754.04C1113.46 757.888 1110.16 761.187 1106.31 761.187H1082.39C1078.54 761.187 1075.24 757.888 1075.24 754.04C1075.24 750.192 1078.54 746.894 1082.39 746.894H1106.31C1110.16 746.894 1113.46 750.192 1113.46 754.04Z" fill="#878787"/>
<path d="M1060.11 754.04C1060.11 757.888 1056.81 761.187 1052.96 761.187H1029.04C1025.19 761.187 1021.89 757.888 1021.89 754.04C1021.89 750.192 1025.19 746.894 1029.04 746.894H1052.96C1056.81 746.894 1060.11 750.192 1060.11 754.04Z" fill="#878787"/>
<path d="M1006.76 754.04C1006.76 757.888 1003.46 761.187 999.614 761.187H975.69C971.84 761.187 968.541 757.888 968.541 754.04C968.541 750.192 971.84 746.894 975.69 746.894H999.614C1003.74 746.894 1006.76 750.192 1006.76 754.04Z" fill="#878787"/>
<path d="M1196.23 557.792C1196.23 578.956 1179.18 595.997 1158.01 595.997H937.467C916.293 595.997 899.244 578.956 899.244 557.792V539.651C899.244 518.487 916.293 501.446 937.467 501.446H1158.28C1179.46 501.446 1196.51 518.487 1196.51 539.651V557.792H1196.23Z" fill="#EF7D00" stroke="#1D2342" stroke-width="2.3214" stroke-miterlimit="10"/>
<path d="M1169.56 578.131H948.741C927.567 578.131 910.518 561.09 910.518 539.926V521.786C910.518 517.937 911.068 514.364 912.168 510.791C904.193 517.937 899.244 528.107 899.244 539.376V557.517C899.244 578.681 916.293 595.722 937.467 595.722H1158.28C1175.61 595.722 1190.18 584.178 1194.86 568.511C1187.98 574.558 1179.18 578.131 1169.56 578.131Z" fill="#D6C0BF"/>
<path d="M1181.66 547.072C1181.66 560.266 1174.51 570.985 1165.98 570.985H946.267C937.467 570.985 930.592 560.266 930.592 547.072C930.592 533.879 937.742 523.16 946.267 523.16H1165.98C1174.78 523.16 1181.66 533.879 1181.66 547.072Z" fill="white"/>
<path d="M961.116 553.944L960.841 554.219L960.291 554.768L959.741 555.043L959.191 555.593L958.641 555.868L958.091 556.418L957.541 556.692L956.716 556.967L956.166 557.242L955.616 557.517H955.066L954.241 557.792L952.866 558.067H952.316H951.491H949.566H949.016H948.466H947.916L947.366 557.792L946.817 557.517L945.167 556.967L944.342 556.692L943.517 556.418L942.967 556.143L942.417 555.868L941.867 555.593L941.317 555.318L940.492 554.219L939.942 553.669L939.667 553.119L939.392 552.57L939.117 552.02L938.842 551.47L938.567 550.92L938.292 550.096L937.742 548.996L937.467 548.172L937.192 547.072V546.523V545.698V545.148V544.599V544.049V542.95V542.4V541.85L937.467 541.026L937.742 540.476V539.926L938.017 539.376L938.292 538.552L938.567 538.002L938.842 537.452L939.117 536.903L939.392 536.353L939.667 535.803L939.942 535.254L940.217 534.704L940.767 534.154L941.317 533.879L941.867 533.604L942.417 533.33L943.517 532.505L944.067 532.23L944.617 531.955L945.717 531.406L946.267 531.131L946.817 530.856L947.916 530.581H948.466H949.016H950.116H950.941H951.491H952.316L953.691 530.856H954.241L955.066 531.131L956.441 531.406L956.991 531.68L957.816 532.23L958.366 532.505L959.191 533.055L960.291 533.879L960.566 534.154L960.841 534.429L961.116 534.704V534.979V535.254L960.841 535.528L960.566 535.803L959.741 536.353L959.466 536.628L958.916 537.178L958.641 537.452L958.091 538.277L957.816 538.827L957.541 539.102H956.991H956.716H956.441H956.166L955.891 538.827L955.341 538.277L954.791 538.002L953.966 537.727L953.416 537.452L952.591 537.178H952.041H951.216H950.666H949.841L949.291 537.452L948.466 537.727L947.916 538.002L947.366 538.277L946.542 538.552L945.992 538.827V539.102L945.442 539.651L945.167 539.926L944.892 540.476L944.617 541.026L944.342 541.575L944.067 542.125V542.675V543.224V544.324V544.874V545.698V546.248L944.342 547.072L944.617 547.622L944.892 548.172L945.167 548.722L945.717 549.546L945.992 550.096L946.542 550.646L947.092 550.92L947.916 551.195L948.466 551.47L949.291 551.745H949.841H950.666H951.491H952.041H952.316L952.866 551.47L953.691 551.195L954.241 550.92L954.791 550.646L955.341 550.371L955.891 549.821L956.441 549.546L956.716 549.271H956.991H957.266L957.541 549.546L957.816 549.821L958.091 550.096L958.366 550.371L958.916 551.195L959.191 551.745L960.291 552.844L960.566 553.394L960.841 553.669L961.116 553.944Z" fill="#6D1B09"/>
<path d="M984.215 555.593V556.143V556.418V556.967L983.94 557.242H983.665H983.39H983.115H982.565L978.715 556.967H975.965L972.665 557.242L970.466 556.967H967.716H966.066H965.516H964.966H964.691L964.416 556.692L964.141 556.418V555.868V555.318L964.416 553.944V553.394L964.141 551.47V550.92V548.996V548.447V544.049V543.499L963.866 539.102V538.552V536.628V533.604V532.505V531.955V531.68V531.131L964.141 530.856H964.416H964.691H964.966H965.516H967.166H967.716H970.191H970.466L970.741 531.131L971.015 531.406V534.429V536.628V537.178V539.376V539.926V542.125V542.675V544.874V545.423L970.741 550.096V550.371V550.646V550.92L971.015 551.195H971.565H972.665H973.765H974.315H979.54H980.09L981.19 550.92H981.74H982.29H982.84L983.115 551.195V551.47V551.745V553.669V554.219L984.215 555.593Z" fill="#6D1B09"/>
<path d="M995.489 551.47V552.02L995.214 553.944V554.494V556.418V556.692V556.967H994.939H994.389H992.465H990.265L988.615 556.692H988.34V556.418V555.593V555.043V554.494V553.944V552.02V551.47V549.546V548.996V547.072V546.523V544.599V541.575V539.651V539.102V537.178V534.154V532.23V531.955L988.615 531.68H988.89H989.165H989.715H990.54H991.09H992.74H994.939H995.214V531.955V532.23V533.055V533.604V537.178V539.102V539.651V541.575V542.125V544.049V544.599V546.523V549.546L995.489 551.47Z" fill="#6D1B09"/>
<path d="M1023.54 553.944L1023.26 554.219L1022.71 554.768L1022.16 555.043L1021.61 555.593L1021.06 555.868L1020.24 556.418L1019.69 556.692L1018.86 556.967L1018.31 557.242L1017.76 557.517H1017.21L1016.39 557.792L1015.01 558.067H1014.46H1013.64H1011.71H1011.16H1010.61H1010.06L1009.24 557.517L1008.69 557.242L1007.04 556.692H1006.49L1005.94 556.418L1005.39 556.143L1004.84 555.868L1004.29 555.593L1003.74 555.043L1002.91 554.219L1002.36 553.669L1002.09 553.119L1001.81 552.57L1001.54 552.02L1000.99 551.745V551.195L1000.71 550.371L1000.16 548.996L999.889 548.172L999.614 547.072V546.523V545.698V545.148V544.599V544.049V542.95V542.4V541.85L999.889 541.026L1000.16 540.476L1000.44 539.926L1000.71 539.376L1000.99 538.552L1001.26 538.002L1001.54 537.452L1001.81 536.903L1002.09 536.353L1002.36 535.803L1002.64 535.254L1002.91 534.704L1003.46 534.154L1004.01 533.879L1004.56 533.604L1005.11 533.33L1006.21 532.505L1006.76 532.23L1007.31 531.955L1008.41 531.406L1008.96 531.131L1009.51 530.856L1010.61 530.581H1011.16H1011.71H1012.81H1013.64H1014.19H1015.01L1016.39 530.856H1016.94L1017.76 531.131L1019.14 531.406L1019.69 531.68L1020.51 532.23L1021.06 532.505L1021.89 533.055L1022.99 533.879L1023.26 534.154L1023.54 534.429L1023.81 534.704V534.979V535.254L1023.54 535.528L1023.26 535.803L1022.99 536.078L1022.71 536.353L1021.34 537.178L1021.06 537.452L1020.24 538.277L1019.96 538.827L1019.69 539.102L1019.41 539.376H1019.14H1018.86H1018.59L1018.31 539.102L1017.49 538.277L1016.94 538.002L1016.11 537.727L1015.56 537.452L1014.74 537.178H1014.19H1013.36H1012.81H1011.99L1011.44 537.452L1010.61 537.727L1010.06 538.002L1009.51 538.277L1009.24 538.552L1008.69 538.827L1008.41 539.102L1007.86 539.651L1007.59 539.926L1007.31 540.476L1007.04 541.026L1006.76 541.575L1006.49 542.125V542.675V543.224V544.324V544.874V545.698V546.248L1006.76 547.072L1007.04 547.622L1007.31 548.172L1007.59 548.722L1008.14 549.546L1008.41 550.096L1008.96 550.646L1009.51 550.92L1010.34 551.195L1010.89 551.47L1011.71 551.745H1012.26H1013.09H1013.91H1014.46H1014.74L1015.29 551.47L1016.11 551.195L1016.66 550.92L1017.21 550.646L1017.76 550.371L1018.31 549.821L1018.86 549.546L1019.14 549.271H1019.41H1019.69L1019.96 549.546L1020.24 549.821L1020.51 550.096L1020.79 550.371L1021.34 551.195L1021.61 551.745L1022.71 552.844L1022.99 553.394L1023.26 553.669L1023.54 553.944Z" fill="#6D1B09"/>
<path d="M1050.21 556.418L1050.49 556.692V556.967V557.242L1050.21 557.517H1049.66L1047.74 557.242H1047.19H1044.99H1044.44H1042.24H1041.69L1041.41 556.967L1040.04 555.593L1039.76 555.043L1038.66 553.394L1038.39 553.119L1037.01 551.745L1036.74 551.195L1035.64 549.821L1035.36 549.546L1035.09 549.271H1034.81L1034.54 549.546V550.096V552.57V554.494V555.043V555.868V556.418V556.967V557.242L1034.26 557.517H1033.71H1032.61H1031.24L1029.59 557.242H1029.04L1027.39 557.517H1027.11L1026.84 557.242V556.967V556.418V555.868V555.043V554.494L1026.56 552.57V550.096V549.546V547.622V547.072V544.599V542.675V542.125V540.201V539.651V535.254V534.704V532.78V532.23V531.955H1026.84H1027.39H1028.49H1029.04L1030.69 531.68H1031.24H1032.89H1033.16H1033.44V531.955V532.23V532.78V533.879V534.429V536.353V536.903V538.827V539.102H1033.71L1033.99 538.827L1035.09 537.178L1037.01 534.979L1038.11 533.33L1038.39 532.78L1039.76 531.406L1040.04 531.131H1040.31H1041.96H1042.51L1044.71 531.406H1046.09H1046.64H1048.01H1048.29L1048.56 531.68L1048.29 531.955L1046.91 533.33L1046.64 533.879L1045.26 535.528L1044.99 536.078L1043.61 537.727L1043.34 538.277L1041.96 539.926L1041.69 540.476L1040.31 542.125L1040.04 542.675L1039.21 543.499L1038.94 544.049L1038.66 544.324L1038.39 544.599V544.874L1038.66 545.148L1040.04 546.798L1040.31 547.347L1041.96 548.996L1042.24 549.546L1043.61 551.195L1044.99 550.92L1046.36 552.57L1046.64 553.119L1048.29 554.768L1048.56 555.318L1050.21 556.418Z" fill="#6D1B09"/>
<path d="M1091.19 553.944V554.494V555.318V555.868V556.418L1090.91 556.967L1090.64 557.242H1090.36H1089.81H1087.89H1087.34L1085.41 557.517H1084.86H1084.31L1084.04 557.242V556.692L1083.76 554.494V553.944V551.745V551.195V548.996V548.447L1083.49 548.172L1083.21 547.897H1082.39H1081.01H1080.46H1077.71H1075.79H1075.24H1074.96L1074.69 548.172V548.722V550.92V551.47V553.669V554.219L1074.96 555.868V556.418L1074.69 556.967L1074.41 557.242H1073.86H1073.31H1072.76L1071.39 556.967H1070.84H1069.19H1068.64H1068.36H1068.09L1067.81 556.692L1067.54 556.418V556.143V555.868V555.318V554.219V551.195V549.271V548.722V546.798V546.248V544.324V543.774V541.85V539.376V538.827V536.903V536.353V534.429V533.879L1067.26 532.78V531.955L1067.54 531.406L1067.81 531.131H1068.36H1068.91H1069.46H1070.84H1071.39H1072.76H1073.31H1073.86H1074.41L1074.69 531.406L1074.96 531.955V532.23V532.78V534.429V534.979V537.178V540.201V540.751V541.026L1075.24 541.3H1075.51H1076.06H1076.61L1077.99 541.026H1078.54H1080.74L1082.94 541.3H1083.49H1083.76L1084.04 541.026L1084.31 540.751V540.476L1084.59 538.277V537.727V535.528V534.979V532.78V532.23L1084.86 531.955H1085.41H1085.96H1087.89H1088.44H1090.09H1090.64H1090.91H1091.46L1091.74 532.23L1092.01 532.78V533.33V534.704V535.254V537.178V539.102V539.651L1092.29 541.575V542.125L1092.01 544.049V544.599V546.523V547.072V548.996V549.546V551.47V553.944H1091.19Z" fill="#6D1B09"/>
<path d="M1117.31 553.944V554.494L1117.03 556.418V556.692L1116.76 556.967L1116.48 557.242L1111.81 557.517H1111.26L1109.33 557.242H1108.78L1106.86 557.517H1106.31H1103.83L1101.91 557.242H1101.36L1098.34 557.517H1097.24H1096.69L1096.41 557.242V556.967V556.692V555.868V555.318V554.768V554.219L1096.69 552.295V551.745V549.821V549.271V547.347V546.798V544.874V541.85L1096.96 539.926V539.376V537.452V536.903V536.078V534.979V534.429V532.505V531.955V531.68L1097.24 531.406H1097.51H1098.06L1100.26 531.68H1102.46H1103.01L1105.21 531.955H1105.76L1107.96 531.68H1108.51H1113.46H1114.01H1115.11H1115.93H1116.48V531.955V532.505V533.604V534.429V534.979V535.803V536.353V536.903V537.452L1116.21 537.727L1115.93 538.002H1115.38H1115.11H1114.56H1111.26H1110.98H1109.06H1108.51H1106.58H1104.93H1104.38H1104.11H1103.83L1103.56 538.277V538.552V538.827V539.651V539.926V540.476V540.751V541.026L1103.83 541.3H1104.11H1105.21H1106.31H1109.61L1113.73 541.026H1114.83H1115.11L1115.38 541.3V541.575V541.85V542.4V542.95V544.049V544.874V545.973V546.523L1115.11 546.798L1114.83 547.072H1114.56H1113.73L1112.08 546.798H1111.53L1108.78 547.072H1106.58H1106.03H1104.66H1104.11H1103.56H1103.28V547.347V547.897V548.722V549.271V550.096V550.371V550.646L1103.56 550.92H1103.83H1105.76H1106.31L1108.23 550.646L1110.71 550.92H1111.26L1113.73 550.646H1114.28H1114.83L1116.21 550.92H1116.48L1116.76 551.195V551.47L1117.31 553.944Z" fill="#6D1B09"/>
<path d="M1145.36 556.967L1144.81 557.242H1142.33H1140.41H1139.86H1138.21H1137.66L1137.38 556.967L1137.11 556.692L1136.01 555.043L1135.73 554.494L1134.63 552.844L1134.36 552.295L1133.26 550.646L1132.98 550.096L1131.88 548.447L1131.61 548.172H1131.33H1130.78H1129.68H1129.13L1128.86 548.447V548.996V550.92V551.47L1129.13 553.394V553.944V554.768V555.318V555.868V556.418L1128.86 556.692H1128.58H1128.03H1126.38H1124.73H1124.18H1122.53H1121.98L1121.71 556.418V556.143V555.593V555.043V554.219V553.669L1121.98 551.745V551.195V549.271V548.722V546.798V546.248V544.324V543.774V541.85V541.3V539.376V538.827V536.903V536.353V534.429V533.879V532.78V532.23V531.955V531.406L1122.26 531.131H1122.81H1123.08H1123.63H1125.28L1129.41 531.406L1131.88 531.131H1132.43L1134.91 531.406H1136.28H1136.83H1137.38L1138.21 531.68L1138.76 531.955L1139.31 532.23L1139.86 532.505L1140.41 532.78L1140.96 533.055L1141.51 533.604L1141.78 533.879L1142.06 534.154L1142.33 534.704L1142.88 535.528L1143.16 536.078L1143.71 536.628L1143.98 537.178L1144.26 537.727L1144.53 538.277V538.827V539.376V540.201V540.751V541.3V541.85V542.4L1144.26 542.95L1143.98 543.499L1143.71 544.049L1143.43 544.599L1143.16 545.148L1142.88 545.698L1142.61 545.973L1142.06 546.523L1141.78 546.798L1140.96 547.072L1140.41 547.347L1139.86 547.622H1139.31H1139.03L1139.31 547.897L1140.68 549.821L1140.96 550.371L1142.33 552.02L1142.61 552.57L1143.98 554.219L1144.26 554.768L1145.36 556.143L1145.63 556.418L1145.91 556.692L1145.36 556.967ZM1134.36 543.224L1135.18 542.95L1135.73 542.675L1136.28 542.4L1136.56 541.85L1136.83 541.3L1137.11 540.751V540.201V539.651V539.102L1136.83 538.552L1136.56 538.002L1136.28 537.452L1136.01 537.178L1135.46 536.903L1134.63 536.628H1134.08H1132.43H1131.88H1129.96H1129.41H1129.13L1128.86 536.903V537.178V538.002V538.552V539.102V539.651V541.575V541.85V542.125H1129.13H1129.68L1131.61 542.4H1132.16L1134.36 543.224Z" fill="#6D1B09"/>
<path d="M1169.28 553.944V554.494L1169.01 556.418V556.692L1168.73 556.967L1168.46 557.242L1163.78 557.517H1163.23L1161.31 557.242H1160.76L1158.83 557.517H1158.28H1155.81L1153.88 557.242H1153.33L1150.31 557.517H1149.21H1148.66L1148.38 557.242V556.967V556.692V555.868V555.318V554.768V554.219L1148.66 552.295V551.745V549.821V549.271V547.347V546.798V544.874V541.85L1148.93 539.926V539.376V537.452V536.903V536.078V534.979V534.429V532.505V531.955V531.68L1149.21 531.406H1149.48H1150.03L1152.23 531.68H1154.43H1154.98L1157.18 531.955H1157.73L1159.93 531.68H1160.48H1165.43H1165.98H1167.08H1167.91H1168.46H1168.73V531.955V532.505V533.604V534.429V534.979V535.803V536.353V536.903V537.452L1168.46 537.727L1168.18 538.002H1167.63H1167.36H1166.81H1163.51H1163.23H1161.31H1160.76H1158.83H1157.18H1156.63H1156.36H1156.08L1155.81 538.277V538.552V538.827V539.651V539.926V540.476V540.751V541.026L1156.08 541.3H1156.36H1157.46H1158.56H1161.86L1165.98 541.026H1167.08H1167.36L1167.63 541.3V541.575V541.85V542.4V542.95V544.049V544.874V545.973V546.523L1167.36 546.798L1167.08 547.072H1166.81H1165.98L1164.33 546.798H1163.78L1161.03 547.072H1158.83H1158.28H1156.91H1156.36H1155.81H1155.53V547.347V547.897V548.722V549.271V550.096V550.371V550.646L1155.81 550.92H1156.08H1158.01H1158.56L1160.48 550.646L1162.96 550.92H1163.51L1165.98 550.646H1166.53H1167.08L1168.46 550.92H1168.73L1169.01 551.195V551.47L1169.28 553.944Z" fill="#6D1B09"/>
<path d="M1161.86 512.44C1161.86 515.464 1159.38 517.663 1156.63 517.663H949.841C946.817 517.663 944.617 515.189 944.617 512.44C944.617 509.417 947.092 507.218 949.841 507.218H1156.36C1159.38 506.943 1161.86 509.417 1161.86 512.44Z" fill="white"/>
<path d="M1049.01 573.406L1037.11 587.106L1185.18 715.567L1197.08 701.867L1049.01 573.406Z" fill="#C8C8C8" stroke="#27325C" stroke-width="1.4074" stroke-miterlimit="10"/>
<path d="M1048.92 573.44L1037.02 587.139L1050.1 598.49L1062 584.79L1048.92 573.44Z" fill="#E7E7E7" stroke="#27325C" stroke-width="1.4074" stroke-miterlimit="10"/>
<path d="M1118.4 633.762L1106.51 647.462L1185.01 715.556L1196.9 701.856L1118.4 633.762Z" fill="#929292" stroke="#27325C" stroke-width="1.4074" stroke-miterlimit="10"/>
<path d="M1032.06 570.985L1021.61 563.564" stroke="#1D2342" stroke-width="1.4074" stroke-miterlimit="10" stroke-linecap="round" stroke-linejoin="round"/>
<path d="M1027.66 612.763L1035.09 602.319" stroke="#1D2342" stroke-width="1.4074" stroke-miterlimit="10" stroke-linecap="round" stroke-linejoin="round"/>
<path d="M1047.46 561.365L1045.54 548.722" stroke="#1D2342" stroke-width="1.4074" stroke-miterlimit="10" stroke-linecap="round" stroke-linejoin="round"/>
<path d="M1047.74 620.46L1048.01 607.541" stroke="#1D2342" stroke-width="1.4074" stroke-miterlimit="10" stroke-linecap="round" stroke-linejoin="round"/>
<path d="M1068.91 555.043L1061.49 565.213" stroke="#1D2342" stroke-width="1.4074" stroke-miterlimit="10" stroke-linecap="round" stroke-linejoin="round"/>
<path d="M1082.66 571.535L1070.56 575.933" stroke="#1D2342" stroke-width="1.4074" stroke-miterlimit="10" stroke-linecap="round" stroke-linejoin="round"/>
<path d="M1015.29 590.775L1027.94 588.851" stroke="#1D2342" stroke-width="1.4074" stroke-miterlimit="10" stroke-linecap="round" stroke-linejoin="round"/>
<path d="M234.468 380.348L199.895 386.585L244.605 351.765L261.501 356.182L234.468 380.348Z" fill="#F6A654" stroke="#1D2342" stroke-width="2.4996" stroke-miterlimit="10"/>
<path d="M217.051 351.765L203.015 383.986L246.945 348.646L246.685 331.236L217.051 351.765Z" fill="#F6A654" stroke="#1D2342" stroke-width="2.4996" stroke-miterlimit="10"/>
<path d="M213.932 460.382C213.932 518.589 166.623 565.622 108.656 565.622C50.4287 565.622 3.37927 518.329 3.37927 460.382C3.37927 402.176 50.6887 355.143 108.656 355.143C166.883 355.143 213.932 402.176 213.932 460.382Z" fill="#EA513F" stroke="#1D2342" stroke-width="2.4996" stroke-miterlimit="10"/>
<path d="M182.219 460.382C182.219 500.919 149.207 533.92 108.656 533.92C68.1048 533.92 35.0922 500.919 35.0922 460.382C35.0922 419.846 68.1048 386.845 108.656 386.845C149.207 386.845 182.219 419.846 182.219 460.382Z" fill="white"/>
<path d="M142.188 460.382C142.188 478.832 127.112 493.903 108.656 493.903C90.1999 493.903 75.1232 478.832 75.1232 460.382C75.1232 441.933 90.1999 426.862 108.656 426.862C127.112 426.862 142.188 441.933 142.188 460.382Z" fill="#EA513F"/>
<path d="M108.656 460.382L249.024 348.387" stroke="#1D2342" stroke-width="2.1276" stroke-miterlimit="10" stroke-linecap="round" stroke-linejoin="round"/>
<defs>
<clipPath id="clip0_29_48">
<rect width="324.725" height="275.78" fill="white" transform="matrix(0.890111 -0.455744 0.410815 0.911719 95.321 647.652)"/>
</clipPath>
<clipPath id="clip1_29_48">
<rect width="180.719" height="146.594" fill="white" transform="matrix(0.649281 -0.760549 0.717772 0.696278 29.61 976.904)"/>
</clipPath>
<clipPath id="clip2_29_48">
<rect width="228.256" height="328.416" fill="white" transform="translate(1133.21) rotate(30)"/>
</clipPath>
<clipPath id="clip3_29_48">
<rect width="135.806" height="201.733" fill="white" transform="matrix(0.851638 -0.524131 0.476251 0.87931 1025.86 285.927)"/>
</clipPath>
</defs>
</svg>
