<svg width="160" height="160" viewBox="0 0 160 160" fill="none" xmlns="http://www.w3.org/2000/svg">
<path d="M65.6667 56.1333C63.2 55.1333 60.5333 54.7333 57.8 54.8C56.0667 54.8 54.5333 54.8 53.2667 54.8667C51.9333 54.8 51 54.8667 50.5333 54.9333V77.3333C51.4667 77.4 52.3333 77.4667 53.1333 77.4667H56.6667C59.2667 77.4667 61.8667 77.0667 64.3333 76.2667C66.4667 75.6667 68.3333 74.4 69.8 72.7333C71.2 71.0667 71.8667 68.8 71.8667 65.8667C71.9333 63.8 71.4 61.7333 70.3333 59.9333C69.2217 58.2024 67.5869 56.8712 65.6667 56.1333ZM131.667 2H28.3333C12.6667 2 0 14.6667 0 30.3333V129.66C0 145.327 12.6667 157.993 28.3333 157.993H131.667C147.333 157.993 160 145.327 160 129.66V30.3333C160 14.6667 147.333 2 131.667 2ZM82.3933 79.6667C79.7333 83.4 76 86.2 71.6667 87.8C67.1333 89.4667 62.1333 90.0667 56.6667 90.0667C55.0667 90.0667 54 90.0667 53.3333 90C52.6667 89.9333 51.7333 89.9333 50.4667 89.9333V111.327C50.5333 111.793 50.2 112.2 49.7333 112.267H36.8C36.2667 112.267 36 111.993 36 111.393V42.8C36 42.3333 36.2 42.0667 36.6667 42.0667C37.8 42.0667 38.8667 42.0667 40.4 42C42 41.9333 43.6667 41.9333 45.4667 41.8667C47.2667 41.8 49.2 41.8 51.2667 41.7333C53.3333 41.6667 55.3333 41.6667 57.3333 41.6667C62.8 41.6667 67.3333 42.3333 71.0667 43.7333C74.4 44.8667 77.4667 46.7333 80 49.2C82.1333 51.3333 83.8 53.9333 84.8667 56.8C85.86 59.6 86.3933 62.4667 86.3933 65.4667C86.4 71.2 85.0667 75.9333 82.3933 79.6667ZM129.667 105.6C127.8 108.267 125.193 110.327 122.2 111.54C118.933 112.933 114.933 113.66 110.127 113.66C107.067 113.66 104.06 113.4 101.067 112.8C98.7333 112.393 96.4 111.667 94.2667 110.667C93.8 110.407 93.46 109.94 93.5267 109.407V97.8067C93.5267 97.6133 93.6 97.34 93.8 97.2067C93.9933 97.0733 94.2 97.14 94.4 97.2733C97 98.8067 99.7333 99.88 102.667 100.54C105.193 101.207 107.86 101.54 110.533 101.54C113.067 101.54 114.867 101.2 116.067 100.6C117.133 100.133 117.867 99 117.867 97.8C117.867 96.86 117.333 96 116.267 95.1333C115.2 94.2733 113.007 93.2733 109.74 91.9933C106.34 90.7933 103.213 89.1933 100.273 87.2C98.1872 85.7059 96.4552 83.7713 95.2 81.5333C94.1404 79.424 93.6161 77.0864 93.6733 74.7267C93.6733 71.86 94.4733 69.1267 95.9467 66.66C97.6133 63.9933 100.073 61.86 102.94 60.5267C106.067 58.9333 110 58.2 114.733 58.2C117.467 58.2 120.267 58.4 123 58.8C125 59.0667 126.933 59.6 128.733 60.3333C128.993 60.4 129.267 60.6667 129.4 60.9333C129.467 61.2 129.533 61.4667 129.533 61.7333V72.6C129.533 72.8667 129.4 73.1333 129.2 73.2667C128.6 73.4 128.267 73.4 128 73.2667C126 72.2 123.867 71.4667 121.6 71C119.133 70.4667 116.667 70.1333 114.133 70.1333C112.8 70.0667 111.4 70.2667 110.127 70.6C109.267 70.8 108.527 71.2667 108.06 71.9333C107.727 72.4667 107.527 73.1333 107.527 73.7333C107.527 74.3333 107.793 74.9333 108.2 75.4667C108.8 76.2 109.593 76.8 110.467 77.2667C111.993 78.0667 113.6 78.8 115.193 79.4667C118.8 80.6667 122.267 82.3333 125.467 84.3333C127.667 85.7267 129.467 87.6 130.727 89.8667C131.793 91.9867 132.327 94.3333 132.26 96.7267C132.333 99.8667 131.4 102.993 129.667 105.6Z" fill="#125B50"/>
</svg>
