<svg width="115" height="115" viewBox="0 0 115 115" fill="none" xmlns="http://www.w3.org/2000/svg">
<path d="M115 102.222V12.7778C115 5.75 109.231 0 102.19 0H12.8097C5.4625 0 0 5.44972 0 12.7778V102.222C0 109.557 5.4625 115 12.8097 115H102.19C105.581 114.995 108.831 113.648 111.231 111.254C113.632 108.86 114.986 105.612 115 102.222ZM90.62 67.7669C90.62 67.7669 97.8522 74.9033 99.6347 78.2128C99.6858 78.2831 99.705 78.3469 99.7242 78.3725C100.446 79.5864 100.631 80.5447 100.267 81.2475C99.6667 82.4167 97.6222 83.0044 96.9258 83.0556H84.1544C83.26 83.0556 81.4072 82.8256 79.1583 81.2731C77.4333 80.0719 75.7275 78.085 74.0664 76.1492C71.5875 73.2742 69.4408 70.7825 67.2814 70.7825C67.0074 70.7818 66.7353 70.8272 66.4764 70.9167C64.8344 71.4406 62.7517 73.7725 62.7517 80.0017C62.7517 81.9503 61.2183 83.0619 60.1322 83.0619H54.28C52.2867 83.0619 41.9047 82.3656 32.7111 72.6608C21.4283 60.7775 11.2956 36.9406 11.2061 36.7297C10.5672 35.19 11.8897 34.3531 13.3272 34.3531H26.2328C27.9642 34.3531 28.52 35.4008 28.9161 36.34C29.3633 37.4069 31.05 41.7131 33.81 46.5558C38.3014 54.4333 41.0678 57.6406 43.2719 57.6406C43.6841 57.6382 44.0888 57.5304 44.4475 57.3275C47.3289 55.7367 46.7922 45.4633 46.6644 43.3422C46.6644 42.9397 46.6581 38.7486 45.1886 36.7361C44.1281 35.2794 42.3328 34.7236 41.2467 34.5128C41.6895 33.9025 42.2723 33.4074 42.9461 33.0689C44.9203 32.085 48.4789 31.9444 52.0183 31.9444H53.9861C57.8258 31.9956 58.8225 32.2447 60.2089 32.5961C63.0136 33.2669 63.0711 35.0878 62.8219 41.285C62.7517 43.0483 62.675 45.0481 62.675 47.3928C62.675 47.8975 62.6558 48.4533 62.6558 49.0283C62.5664 52.1972 62.4642 55.7814 64.7003 57.2508C64.9897 57.4319 65.3236 57.5292 65.665 57.5319C66.4444 57.5319 68.7764 57.5319 75.095 46.69C77.8742 41.9047 80.0144 36.2569 80.1614 35.8353C80.3846 35.3794 80.7078 34.9797 81.1069 34.6661C81.4342 34.4961 81.7988 34.4105 82.1675 34.4169H97.3411C99.0022 34.4169 100.127 34.6661 100.338 35.2986C100.702 36.3144 100.267 39.4131 93.3353 48.7792L90.2494 52.8681C83.9628 61.0969 83.9628 61.5186 90.62 67.7669Z" fill="#F8B400"/>
</svg>
